<svg xmlns="http://www.w3.org/2000/svg" width="29.04" height="31.503" viewBox="0 0 29.04 31.503">
  <g id="leaf_1_" data-name="leaf (1)" transform="translate(-15.643 -0.001)">
    <path id="Path_35" data-name="Path 35" d="M95.922,7.423c8.905-.979,11.8-6.613,11.809-6.613a.573.573,0,0,1,1.061.113c2.96,10.039,1.345,16.96-2.053,21.066a12.782,12.782,0,0,1-4.909,3.662,12.231,12.231,0,0,1-5.574.945,9.8,9.8,0,0,1-8.527-5.7,9.491,9.491,0,0,1-.759-2.812,9.668,9.668,0,0,1,1.09-5.637A9.352,9.352,0,0,1,92.553,8.32a11.316,11.316,0,0,1,3.369-.9Z" transform="translate(-65.657 -0.461)" fill="#fc0"/>
    <path id="Path_36" data-name="Path 36" d="M42.011.56a.573.573,0,1,1,1.14.1c0,.028-.5,6.613-6.928,13.276l-.06.063a33.405,33.405,0,0,1-4.947,4.176l3.861.718a.573.573,0,0,1-.192,1.127l-5.038-.945c-4.594,2.91-12.382,5.6-13.062,11.935a.573.573,0,0,1-1.14-.113c.812-7.6,8.534-9.554,13.742-12.876l.072-.047a33.1,33.1,0,0,0,5.741-4.6l-.457-4.519A.573.573,0,0,1,35.879,8.7c0,.013,0,.026,0,.039l.346,3.508C41.586,6.231,42.008.585,42.011.56Z" transform="translate(0 0)" fill="#d8ad00"/>
  </g>
</svg>
