<svg id="105e4fbf-259c-4aa4-95f6-00b15429098d" data-name="Layer 1" xmlns="http://www.w3.org/2000/svg" viewBox="0 0 177 137"><title>linje50</title><rect width="177" height="137" rx="30" ry="30" style="fill:#0072bb"/><path d="M242,354.71H215.25L213,369.37a41.47,41.47,0,0,1,5.34-.35c5.69,0,11.38,1,15.86,3.79,5.34,2.93,9.65,9,9.65,17.41,0,13.28-10.86,23.1-26.9,23.1-7.41,0-14.48-2.07-17.93-4.14l2.41-8.62a32.54,32.54,0,0,0,15.34,3.79c7.76,0,15.17-5,15.17-13.1s-5.52-13.79-19.48-13.79c-4,0-7.24.52-9.83.69l4.48-32.93H242Z" transform="translate(-162.5 -312.5)" style="fill:#fff"/><path d="M252.83,379c0-21.38,9.83-34.65,25.34-34.65,15.86,0,24.65,13.1,24.65,34,0,21-8.45,35-25.34,35C262.31,413.33,252.83,400.4,252.83,379Zm37.93-.52c0-16-4.31-25.34-12.93-25.34-7.76,0-12.93,9.31-12.93,25.34,0,16.72,5,26,12.76,26C286.28,404.54,290.76,394.88,290.76,378.5Z" transform="translate(-162.5 -312.5)" style="fill:#fff"/></svg>