<svg id="cf227ede-3241-49ae-b631-4ac5dcb14fa9" data-name="Layer 1" xmlns="http://www.w3.org/2000/svg" viewBox="0 0 177 137"><title>linje3</title><rect width="177" height="137" rx="30" ry="30" style="fill:#006ef4"/><path d="M229.59,349.71c4-2.59,11.38-5.34,19.83-5.34,14.83,0,21,7.93,21,16.21,0,6.9-5,12.76-13.28,15.52v.34c9.48,1.38,16,7.93,16,16.72,0,10.69-9.65,20.17-27.24,20.17-8.28,0-15.86-2.24-19.65-4.83l3.1-8.62c2.76,1.9,9.48,4.48,16,4.48,10.52,0,15.17-6.21,15-11.55,0-8.62-9.14-12.07-18.28-12.07h-4.65v-7.93h4.83c6.38,0,15.52-2.93,15.69-11,0-4.14-3.1-8.45-10.86-8.45a27.79,27.79,0,0,0-14.65,4.48Z" transform="translate(-162.5 -312.5)" style="fill:#fff"/></svg>