<svg id="6329dd85-f7ec-43aa-bf2a-a917bfe252be" data-name="Layer 1" xmlns="http://www.w3.org/2000/svg" viewBox="0 0 177 137"><title>linje241</title><rect width="177" height="137" rx="30" ry="30" style="fill:#0072bb"/><path d="M172.83,406.09l10.86-10.17c14.31-12.93,21.72-21,21.72-29.83,0-6.55-4.14-12.07-13.1-12.07-6,0-11.21,3.1-14.48,5.34l-3.62-7.76c4.65-4,12.41-7.24,21-7.24,16.21,0,22.93,10.17,22.93,19.48,0,12.93-9.83,22.41-22.93,34l-5.34,4.83V403h29.48v9.48H172.83Z" transform="translate(-162.5 -312.5)" style="fill:#fff"/><path d="M259.72,412.47V394.71H227.14v-6.9l30.52-42.93h13.62v41.38h9.65v8.45h-9.65v17.76Zm0-46.55c0-3.79.34-7.41.52-10.86h-.35A106.54,106.54,0,0,1,254,365.23l-15,20.69.17.34h20.52Z" transform="translate(-162.5 -312.5)" style="fill:#fff"/><path d="M302.65,412.47V355.74h-.34l-12.41,6-1.9-9,16.21-7.59h10.52v67.24Z" transform="translate(-162.5 -312.5)" style="fill:#fff"/></svg>