<svg id="b163d1ee-dabb-48b4-b87b-222d07d79aa5" data-name="Layer 1" xmlns="http://www.w3.org/2000/svg" viewBox="0 0 177 137"><title>linje60</title><rect width="177" height="137" rx="30" ry="30" style="fill:#0072bb"/><path d="M241.8,353.5a49.8,49.8,0,0,0-6.9.34c-13.79,1.9-21.55,10.69-23.27,21h.17A21.38,21.38,0,0,1,228,367.81c12.41,0,21,8.62,21,21.55,0,13.28-10,24-23.79,24-16,0-25.52-12.07-25.52-28.79,0-12.76,4.66-23.28,11.72-29.83,5.86-5.69,13.79-9,23.45-9.83a33.83,33.83,0,0,1,6.9-.34Zm-4.48,36.55c0-8.45-5-14-13.1-14A13.87,13.87,0,0,0,212,383.85a7.49,7.49,0,0,0-.86,3.62c0,9.31,4.83,17.07,14,17.07C232.32,404.54,237.32,398.33,237.32,390.05Z" transform="translate(-162.5 -312.5)" style="fill:#fff"/><path d="M257,379c0-21.38,9.83-34.65,25.34-34.65,15.86,0,24.65,13.1,24.65,34,0,21-8.45,35-25.34,35C266.45,413.33,257,400.4,257,379Zm37.93-.52c0-16-4.31-25.34-12.93-25.34-7.76,0-12.93,9.31-12.93,25.34,0,16.72,5,26,12.76,26C290.41,404.54,294.9,394.88,294.9,378.5Z" transform="translate(-162.5 -312.5)" style="fill:#fff"/></svg>