
<svg xmlns="http://www.w3.org/2000/svg" width="282" height="80" viewBox="0 0 282 80">
  <g id="Group_242" data-name="Group 242" transform="translate(-21 -557)">
    <rect id="Rectangle_49" data-name="Rectangle 49" width="43" height="29" rx="6" transform="translate(21 557)" fill="#b1dcb2"/>
    <g id="leaf_1_" data-name="leaf (1)" transform="translate(17.892 562.107)">
      <path id="Path_35" data-name="Path 35" d="M92.268,4.616c5.294-.582,7.014-3.931,7.02-3.931a.341.341,0,0,1,.631.067c1.76,5.968.8,10.082-1.221,12.524a7.6,7.6,0,0,1-2.918,2.177,7.271,7.271,0,0,1-3.313.562A5.829,5.829,0,0,1,87.4,12.628a5.642,5.642,0,0,1-.451-1.672,5.747,5.747,0,0,1,.648-3.351,5.56,5.56,0,0,1,2.671-2.456,6.727,6.727,0,0,1,2-.534Z" transform="translate(-67.932 -0.477)" fill="#45b549"/>
      <path id="Path_36" data-name="Path 36" d="M31.318.333A.341.341,0,1,1,32,.391a14.013,14.013,0,0,1-4.118,7.892l-.036.037A19.859,19.859,0,0,1,24.9,10.8l2.3.427a.341.341,0,0,1-.114.67l-3-.562c-2.731,1.73-7.361,3.327-7.765,7.095a.341.341,0,0,1-.678-.067c.483-4.517,5.073-5.68,8.169-7.655l.043-.028a19.675,19.675,0,0,0,3.413-2.735L27,5.262a.341.341,0,0,1,.675-.091c0,.008,0,.015,0,.023l.206,2.085A12.959,12.959,0,0,0,31.318.333Z" transform="translate(0 0)" fill="#009549"/>
    </g>
    <g id="Group_230" data-name="Group 230" transform="translate(-1196 -385)">
      <g id="bus" transform="translate(1357 964)">
        <g id="Group_15" data-name="Group 15" transform="translate(2.104)">
          <g id="Group_14" data-name="Group 14">
            <path id="Path_37" data-name="Path 37" d="M72.491,0H59.313a2.559,2.559,0,0,0-2.556,2.556V16.7a.349.349,0,1,0,.7,0V15.15a1.577,1.577,0,0,0,.888.273H73.461a1.577,1.577,0,0,0,.888-.273v3.1a1.86,1.86,0,0,1-1.858,1.858h-1.2a1.357,1.357,0,0,1-1.355-1.355v-.637A1.721,1.721,0,0,0,68.219,16.4h-4.7a1.721,1.721,0,0,0-1.719,1.719v.637a1.357,1.357,0,0,1-1.355,1.355H59.313a1.86,1.86,0,0,1-1.858-1.858v-.389a.349.349,0,1,0-.7,0v.389a2.559,2.559,0,0,0,2.556,2.556H72.491a2.559,2.559,0,0,0,2.556-2.556V2.556A2.559,2.559,0,0,0,72.491,0ZM61.98,20.111a2.045,2.045,0,0,0,.512-1.355v-.637A1.022,1.022,0,0,1,63.514,17.1h4.7a1.022,1.022,0,0,1,1.021,1.021v.637a2.045,2.045,0,0,0,.512,1.355ZM59.313.7H72.49A1.861,1.861,0,0,1,74.28,2.056a1.577,1.577,0,0,0-.819-.228H58.343a1.576,1.576,0,0,0-.819.228A1.861,1.861,0,0,1,59.313.7ZM74.349,5.085H70.665a.349.349,0,1,0,0,.7h3.684v8.054a.889.889,0,0,1-.888.888H58.343a.889.889,0,0,1-.888-.888V5.783H69.269a.349.349,0,1,0,0-.7H57.455V3.414a.889.889,0,0,1,.888-.888H73.461a.889.889,0,0,1,.888.888V5.085Z" transform="translate(-56.757)" fill="#4a4a4a"/>
          </g>
        </g>
        <g id="Group_17" data-name="Group 17" transform="translate(3.303 16.261)">
          <g id="Group_16" data-name="Group 16">
            <path id="Path_38" data-name="Path 38" d="M84.517,354.273a1.629,1.629,0,1,0,1.629,1.629A1.615,1.615,0,0,0,84.517,354.273Zm0,2.559a.931.931,0,1,1,0-1.861.931.931,0,1,1,0,1.861Z" transform="translate(-82.888 -354.273)" fill="#4a4a4a"/>
          </g>
        </g>
        <g id="Group_19" data-name="Group 19" transform="translate(15.938 16.261)">
          <g id="Group_18" data-name="Group 18">
            <path id="Path_39" data-name="Path 39" d="M359.78,354.273a1.629,1.629,0,1,0,1.629,1.629A1.615,1.615,0,0,0,359.78,354.273Zm0,2.559a.931.931,0,1,1,0-1.861.931.931,0,1,1,0,1.861Z" transform="translate(-358.151 -354.273)" fill="#4a4a4a"/>
          </g>
        </g>
        <g id="Group_21" data-name="Group 21" transform="translate(4.133 20.959)">
          <g id="Group_20" data-name="Group 20">
            <path id="Path_40" data-name="Path 40" d="M104.011,456.632a.349.349,0,0,0-.349.349v1.494h-1.993v-1.494a.349.349,0,1,0-.7,0v1.843a.349.349,0,0,0,.349.349h2.691a.349.349,0,0,0,.349-.349v-1.843A.349.349,0,0,0,104.011,456.632Z" transform="translate(-100.971 -456.632)" fill="#4a4a4a"/>
          </g>
        </g>
        <g id="Group_23" data-name="Group 23" transform="translate(14.976 20.959)">
          <g id="Group_22" data-name="Group 22">
            <path id="Path_41" data-name="Path 41" d="M340.24,456.632a.349.349,0,0,0-.349.349v1.494H337.9v-1.494a.349.349,0,1,0-.7,0v1.843a.349.349,0,0,0,.349.349h2.691a.349.349,0,0,0,.349-.349v-1.843A.349.349,0,0,0,340.24,456.632Z" transform="translate(-337.2 -456.632)" fill="#4a4a4a"/>
          </g>
        </g>
        <g id="Group_25" data-name="Group 25" transform="translate(20.735 6.016)">
          <g id="Group_24" data-name="Group 24">
            <path id="Path_42" data-name="Path 42" d="M463.014,131.063a.349.349,0,0,0,0,.7.717.717,0,0,1,.716.716v3.593a.717.717,0,0,1-.716.716.349.349,0,0,0,0,.7,1.416,1.416,0,0,0,1.414-1.414v-3.593A1.416,1.416,0,0,0,463.014,131.063Z" transform="translate(-462.665 -131.063)" fill="#4a4a4a"/>
          </g>
        </g>
        <g id="Group_27" data-name="Group 27" transform="translate(0 6.016)">
          <g id="Group_26" data-name="Group 26">
            <path id="Path_43" data-name="Path 43" d="M12.329,136.788a.717.717,0,0,1-.716-.716v-3.593a.717.717,0,0,1,.716-.716.349.349,0,0,0,0-.7,1.416,1.416,0,0,0-1.414,1.414v3.593a1.416,1.416,0,0,0,1.414,1.414.349.349,0,0,0,0-.7Z" transform="translate(-10.915 -131.064)" fill="#4a4a4a"/>
          </g>
        </g>
      </g>
      <g id="electric-current-symbol" transform="translate(1366.18 970.955)">
        <path id="Path_44" data-name="Path 44" d="M85,.157A.329.329,0,0,0,84.7,0H83.116a.543.543,0,0,0-.468.294l-1.684,3.5a.339.339,0,0,0,.008.331.343.343,0,0,0,.293.156l1.246.016-.9,2.255a.3.3,0,0,0,.014.3.2.2,0,0,0,.163.086H81.8a.3.3,0,0,0,.23-.137l2.915-3.661a.3.3,0,0,0-.242-.5h-.928L84.99.491A.33.33,0,0,0,85,.157Z" transform="translate(-80.924)" fill="#4a4a4a"/>
      </g>
    </g>
    <g id="Rectangle_50" data-name="Rectangle 50" transform="translate(46.5 624.5) rotate(-90)" fill="#6cc26f" stroke="#009549" stroke-width="3">
      <rect width="18" height="108" stroke="none"/>
      <rect x="1.5" y="1.5" width="15" height="105" fill="none"/>
    </g>
    <g id="Ellipse_33" data-name="Ellipse 33" transform="translate(21 594)" fill="#6cc26f" stroke="#009549" stroke-width="6">
      <circle cx="21.5" cy="21.5" r="21.5" stroke="none"/>
      <circle cx="21.5" cy="21.5" r="18.5" fill="none"/>
    </g>
    <rect id="Rectangle_51" data-name="Rectangle 51" width="5" height="26" transform="translate(152 603.5)" fill="#009549"/>
    <g id="Group_238" data-name="Group 238">
      <circle id="Ellipse_30" data-name="Ellipse 30" cx="5.5" cy="5.5" r="5.5" transform="translate(260 610.5)" fill="#4a4a4a"/>
      <circle id="Ellipse_36" data-name="Ellipse 36" cx="5.5" cy="5.5" r="5.5" transform="translate(276 610.5)" fill="#4a4a4a"/>
      <circle id="Ellipse_37" data-name="Ellipse 37" cx="5.5" cy="5.5" r="5.5" transform="translate(292 610.5)" fill="#4a4a4a"/>
    </g>
    <g id="Group_239" data-name="Group 239" transform="translate(-48)">
      <circle id="Ellipse_30-2" data-name="Ellipse 30" cx="5.5" cy="5.5" r="5.5" transform="translate(260 610.5)" fill="#4a4a4a"/>
      <circle id="Ellipse_36-2" data-name="Ellipse 36" cx="5.5" cy="5.5" r="5.5" transform="translate(276 610.5)" fill="#4a4a4a"/>
      <circle id="Ellipse_37-2" data-name="Ellipse 37" cx="5.5" cy="5.5" r="5.5" transform="translate(292 610.5)" fill="#4a4a4a"/>
    </g>
    <g id="Group_237" data-name="Group 237" transform="translate(-96)">
      <circle id="Ellipse_30-3" data-name="Ellipse 30" cx="5.5" cy="5.5" r="5.5" transform="translate(260 610.5)" fill="#4a4a4a"/>
      <circle id="Ellipse_36-3" data-name="Ellipse 36" cx="5.5" cy="5.5" r="5.5" transform="translate(276 610.5)" fill="#4a4a4a"/>
      <circle id="Ellipse_37-3" data-name="Ellipse 37" cx="5.5" cy="5.5" r="5.5" transform="translate(292 610.5)" fill="#4a4a4a"/>
    </g>
  </g>
</svg>
