<svg xmlns="http://www.w3.org/2000/svg" width="284" height="80" viewBox="0 0 284 80">
  <g id="Group_245" data-name="Group 245" transform="translate(-19 -557)">
    <rect id="Rectangle_57" data-name="Rectangle 57" width="43" height="29" rx="6" transform="translate(19 557)" fill="#b1dcb2"/>
    <g id="leaf_1_" data-name="leaf (1)" transform="translate(15.892 562.107)">
      <path id="Path_35" data-name="Path 35" d="M92.268,4.616c5.294-.582,7.014-3.931,7.02-3.931a.341.341,0,0,1,.631.067c1.76,5.968.8,10.082-1.221,12.524a7.6,7.6,0,0,1-2.918,2.177,7.271,7.271,0,0,1-3.313.562A5.829,5.829,0,0,1,87.4,12.628a5.642,5.642,0,0,1-.451-1.672,5.747,5.747,0,0,1,.648-3.351,5.56,5.56,0,0,1,2.671-2.456,6.727,6.727,0,0,1,2-.534Z" transform="translate(-67.932 -0.477)" fill="#45b549"/>
      <path id="Path_36" data-name="Path 36" d="M31.318.333A.341.341,0,1,1,32,.391a14.013,14.013,0,0,1-4.118,7.892l-.036.037A19.859,19.859,0,0,1,24.9,10.8l2.3.427a.341.341,0,0,1-.114.67l-3-.562c-2.731,1.73-7.361,3.327-7.765,7.095a.341.341,0,0,1-.678-.067c.483-4.517,5.073-5.68,8.169-7.655l.043-.028a19.675,19.675,0,0,0,3.413-2.735L27,5.262a.341.341,0,0,1,.675-.091c0,.008,0,.015,0,.023l.206,2.085A12.959,12.959,0,0,0,31.318.333Z" transform="translate(0 0)" fill="#009549"/>
    </g>
    <g id="Rectangle_58" data-name="Rectangle 58" transform="translate(44.5 624.5) rotate(-90)" fill="#6cc26f" stroke="#009549" stroke-width="3">
      <rect width="18" height="256" stroke="none"/>
      <rect x="1.5" y="1.5" width="15" height="253" fill="none"/>
    </g>
    <g id="Ellipse_35" data-name="Ellipse 35" transform="translate(19 594)" fill="#6cc26f" stroke="#009549" stroke-width="6">
      <circle cx="21.5" cy="21.5" r="21.5" stroke="none"/>
      <circle cx="21.5" cy="21.5" r="18.5" fill="none"/>
    </g>
    <rect id="Rectangle_59" data-name="Rectangle 59" width="5" height="26" transform="translate(298 602.5)" fill="#009549"/>
  </g>
</svg>
