
<svg xmlns="http://www.w3.org/2000/svg" xmlns:xlink="http://www.w3.org/1999/xlink" width="64.342" height="79.128" viewBox="0 0 64.342 79.128">
  <defs>
    <clipPath id="clip-path">
      <path id="Path_285" data-name="Path 285" d="M172,293h11.533v45.525H172Zm0,0" transform="translate(-172 -293)" fill="#45b549"/>
    </clipPath>
    <clipPath id="clip-path-2">
      <path id="Path_284" data-name="Path 284" d="M176.515,322.907c.476,3.773,2,6.95,3.623,10.312.811,1.686,1.658,3.455,2.4,5.376H178c-.581-1.38-1.214-2.7-1.842-4.01-1.658-3.447-3.374-7.013-3.915-11.291-1.3-10.319,10.247-29.387,10.741-29.93C182.983,293.363,175.391,314.016,176.515,322.907Zm0,0" transform="translate(-172.14 -293.363)" fill="#45b549"/>
    </clipPath>
    <clipPath id="clip-path-3">
      <path id="Path_283" data-name="Path 283" d="M176.515,322.907c.476,3.773,2,6.95,3.623,10.312.811,1.686,1.658,3.455,2.4,5.376H178c-.581-1.38-1.214-2.7-1.842-4.01-1.658-3.447-3.374-7.013-3.915-11.291-1.3-10.319,10.247-29.387,10.741-29.93,0,0-7.592,20.652-6.468,29.544" transform="translate(-172.14 -293.363)" fill="#45b549"/>
    </clipPath>
    <clipPath id="clip-path-4">
      <path id="Path_287" data-name="Path 287" d="M128,356h64.342v17.214H128Zm0,0" transform="translate(-128 -356)"/>
    </clipPath>
    <clipPath id="clip-path-5">
      <path id="Path_291" data-name="Path 291" d="M168,254h16.389v32.171H168Zm0,0" transform="translate(-168 -254)" fill="#45b549"/>
    </clipPath>
    <clipPath id="clip-path-6">
      <path id="Path_290" data-name="Path 290" d="M171.8,254.191s22.945,18.893,6.267,31.709C165.1,286.758,167.212,261.924,171.8,254.191Zm0,0" transform="translate(-168.256 -254.191)" fill="#45b549"/>
    </clipPath>
    <clipPath id="clip-path-7">
      <path id="Path_289" data-name="Path 289" d="M171.8,254.191s22.945,18.893,6.267,31.709c-12.962.858-10.855-23.976-6.267-31.709" transform="translate(-168.256 -254.191)" fill="#45b549"/>
    </clipPath>
  </defs>
  <g id="Group_215" data-name="Group 215" transform="translate(-3541.001 -1209)">
    <g id="Group_205" data-name="Group 205" transform="translate(3567.709 1232.673)" clip-path="url(#clip-path)">
      <g id="Group_204" data-name="Group 204" transform="translate(0.085 0.22)" clip-path="url(#clip-path-2)">
        <g id="Group_203" data-name="Group 203" clip-path="url(#clip-path-3)">
          <path id="Path_282" data-name="Path 282" d="M182.205,293.363v45.231H170.16V293.363Zm0,0" transform="translate(-171.362 -293.363)" fill="#45b549"/>
        </g>
      </g>
    </g>
    <g id="Group_206" data-name="Group 206" transform="translate(3541.001 1270.914)" clip-path="url(#clip-path-4)">
      <path id="Path_286" data-name="Path 286" d="M192.314,373.232c-3.481-6.347-9.536-10.857-16.623-11.528-.237-.024-.47-.033-.7-.047-4.055-2.591-5.651-5.61-14.255-5.61-8.986,0-10.914,3.244-15.125,6.188a23.547,23.547,0,0,0-17.067,11h63.775" transform="translate(-128.212 -356.018)" fill="#3d2714"/>
    </g>
    <g id="Group_209" data-name="Group 209" transform="translate(3565.281 1209)" clip-path="url(#clip-path-5)">
      <g id="Group_208" data-name="Group 208" transform="translate(0.156 0.116)" clip-path="url(#clip-path-6)">
        <g id="Group_207" data-name="Group 207" clip-path="url(#clip-path-7)">
          <path id="Path_288" data-name="Path 288" d="M160.86,247.945,156.2,283.76l33.311,4.335,4.659-35.815Zm0,0" transform="translate(-163.519 -251.736)" fill="#45b549"/>
        </g>
      </g>
    </g>
  </g>
</svg>
