<svg xmlns="http://www.w3.org/2000/svg" xmlns:xlink="http://www.w3.org/1999/xlink" width="216.19" height="241.774" viewBox="0 0 216.19 241.774">
  <defs>
    <clipPath id="clip-path">
      <path id="Path_294" data-name="Path 294" d="M794,356h77.271v20.673H794Zm0,0" transform="translate(-794 -356)"/>
    </clipPath>
  </defs>
  <g id="Group_223" data-name="Group 223" transform="translate(-58.48 -259.717)">
    <g id="tree" transform="translate(31.751 259.717)">
      <path id="Path_17" data-name="Path 17" d="M242.919,120.672c0-17.959-10.264-33.368-24.89-39.946a40.485,40.485,0,0,0,4.051-17.734c0-21.352-16.267-38.662-36.333-38.662a34.4,34.4,0,0,0-15.935,3.912C165.537,11.954,151.5,0,134.824,0S104.112,11.954,99.837,28.243A34.4,34.4,0,0,0,83.9,24.331c-20.066,0-36.333,17.309-36.333,38.662a40.476,40.476,0,0,0,4.051,17.734c-14.626,6.579-24.89,21.986-24.89,39.946,0,23.275,17.245,42.24,38.877,43.278,3.016,11.624,14.663,20.29,28.582,20.29a31.146,31.146,0,0,0,20.318-7.315,31.875,31.875,0,0,0,40.636,0,31.148,31.148,0,0,0,20.318,7.315c13.919,0,25.566-8.666,28.582-20.29C225.675,162.911,242.919,143.946,242.919,120.672Z" transform="translate(0)" fill="#f3c508"/>
      <g id="Group_3" data-name="Group 3" transform="translate(146.307)">
        <path id="Path_18" data-name="Path 18" d="M244.839.06c-.374.023-.748.049-1.119.086l-.339.036q-.6.065-1.188.151l-.221.033c-.468.073-.934.154-1.4.248h0c7.988,1.624,15.466,7.187,20.2,14.2a16.848,16.848,0,0,0,15.067,7.422l.119-.008A30.432,30.432,0,0,0,246.665,0c-.489,0-.975.014-1.459.037C245.083.043,244.962.053,244.839.06Z" transform="translate(-240.574)" fill="#d8ad00"/>
        <path id="Path_19" data-name="Path 19" d="M368.5,92.881a30.437,30.437,0,0,0-33.122-43.772,30.427,30.427,0,0,1,20.942,43.772,34.108,34.108,0,0,1-11.712,65.5c-2.071,7.5-9,13.429-17.846,15.326a29.008,29.008,0,0,0,6.091.642c11.656,0,21.41-6.82,23.935-15.968a34.108,34.108,0,0,0,11.713-65.5Z" transform="translate(-292.734 -29.35)" fill="#d8ad00"/>
      </g>
      <path id="Path_20" data-name="Path 20" d="M172.72,338.573c-2.744,4.655-14.116,9.859-18.333,10.154q.7.149,1.408.263l.114.02c.48.076.966.142,1.456.194l.038,0c.441.047.887.08,1.335.107l.328.018c.467.022.936.038,1.41.038h0a27.386,27.386,0,0,0,15.81-4.853l.749-.545-3.817-6.262Z" transform="translate(-66.071 -176.905)" fill="#d8ad00"/>
      <path id="Path_21" data-name="Path 21" d="M222.191,294.018l13.035-20.57a3.9,3.9,0,0,0-.734-5.028h0a3.9,3.9,0,0,0-5.332.2l-9.6,9.719a1.887,1.887,0,0,1-3.212-1.578l2.823-20.916a3.9,3.9,0,0,0-3.6-4.411l-2.645-.179a3.9,3.9,0,0,0-4.1,3.214l-5.039,28.63a1.887,1.887,0,0,1-3.322.863L184.68,264.555a3.9,3.9,0,0,0-4.534-1.134l-2.763,1.161a3.9,3.9,0,0,0-1.833,5.6l16.218,27.033a20.28,20.28,0,0,1,2.73,13.035c-2.1,16.209-4.713,31.5-15.4,43.952h55.751c-11.437-13.332-14.258-29.911-15.772-47.393A20.582,20.582,0,0,1,222.191,294.018Z" transform="translate(-72.61 -112.805)" fill="#603813"/>
      <path id="Path_22" data-name="Path 22" d="M284.837,273.766a3.9,3.9,0,0,0-.734-5.028h0a3.9,3.9,0,0,0-5.332.2l-4.287,4.341h0l-5.313,5.379a1.887,1.887,0,0,1-3.213-1.578l2.823-20.916a3.894,3.894,0,0,0-3.432-4.39l-7.938,49.339q-.2.956-.31,1.929h0a20.631,20.631,0,0,0-.053,4.082c1.515,17.482,4.336,34.062,15.773,47.394h11.643c-11.437-13.332-14.259-29.911-15.773-47.394a20.577,20.577,0,0,1,3.111-12.789Z" transform="translate(-118.396 -113.123)" fill="#4b2e12"/>
      <path id="Path_23" data-name="Path 23" d="M137.771,60.5a21.121,21.121,0,0,0-19.216,12.354,21.118,21.118,0,0,0-30.462,27.82,21.125,21.125,0,0,0,3.236,42c11.666,0,67.565-49.385,67.565-61.051A21.123,21.123,0,0,0,137.771,60.5Z" transform="translate(-26.311 -36.613)" fill="#fcd743"/>
    </g>
    <g id="Group_219" data-name="Group 219" transform="translate(127.57 480.818)" clip-path="url(#clip-path)">
      <path id="Path_293" data-name="Path 293" d="M871.132,376.686c-4.183-7.623-11.455-13.038-19.964-13.845-.285-.028-.567-.039-.848-.057-4.87-3.112-6.783-6.737-17.12-6.737-10.792,0-13.1,3.9-18.162,7.432a28.279,28.279,0,0,0-20.5,13.207h76.593" transform="translate(-794.146 -356.013)" fill="#3d2714"/>
    </g>
  </g>
</svg>
