<svg xmlns="http://www.w3.org/2000/svg" xmlns:xlink="http://www.w3.org/1999/xlink" width="223.308" height="249.721" viewBox="0 0 223.308 249.721">
  <defs>
    <clipPath id="clip-path">
      <path id="Path_177" data-name="Path 177" d="M794,356h77.271v20.673H794Zm0,0" transform="translate(-794 -356)"/>
    </clipPath>
  </defs>
  <g id="Group_222" data-name="Group 222" transform="translate(-59.48 -255.77)">
    <g id="tree" transform="translate(32.751 255.77)">
      <path id="Path_17" data-name="Path 17" d="M250.037,124.644c0-18.551-10.6-34.466-25.709-41.261a41.818,41.818,0,0,0,4.184-18.317c0-22.055-16.8-39.934-37.529-39.934a35.534,35.534,0,0,0-16.46,4.041C170.106,12.347,155.6,0,138.383,0S106.66,12.347,102.243,29.173a35.528,35.528,0,0,0-16.46-4.041c-20.727,0-37.529,17.879-37.529,39.934a41.809,41.809,0,0,0,4.184,18.317c-15.108,6.8-25.709,22.71-25.709,41.261,0,24.041,17.812,43.631,40.157,44.7C70,181.354,82.032,190.3,96.409,190.3a32.171,32.171,0,0,0,20.987-7.556,32.925,32.925,0,0,0,41.974,0,32.173,32.173,0,0,0,20.987,7.556c14.377,0,26.407-8.951,29.523-20.958C232.224,168.274,250.037,148.685,250.037,124.644Z" transform="translate(0)" fill="#129b12"/>
      <g id="Group_3" data-name="Group 3" transform="translate(150.243)">
        <path id="Path_18" data-name="Path 18" d="M244.98.062c-.387.023-.772.051-1.155.088l-.351.037q-.617.067-1.227.156l-.228.034c-.484.075-.965.159-1.441.257h0c8.251,1.678,15.975,7.424,20.87,14.667a17.4,17.4,0,0,0,15.563,7.666l.123-.009A31.434,31.434,0,0,0,246.865,0c-.505,0-1.008.015-1.507.038C245.231.044,245.106.055,244.98.062Z" transform="translate(-240.574)" fill="#097c09"/>
        <path id="Path_19" data-name="Path 19" d="M369.877,94.342a31.439,31.439,0,0,0-34.213-45.213A31.429,31.429,0,0,1,357.3,94.342a35.231,35.231,0,0,1-12.1,67.653c-2.139,7.745-9.294,13.871-18.434,15.83a29.962,29.962,0,0,0,6.291.664c12.04,0,22.115-7.044,24.723-16.494a35.231,35.231,0,0,0,12.1-67.652Z" transform="translate(-291.614 -28.719)" fill="#097c09"/>
      </g>
      <path id="Path_20" data-name="Path 20" d="M173.324,338.6c-2.835,4.808-14.581,10.183-18.937,10.489q.719.154,1.455.272l.118.02c.5.079,1,.147,1.5.2l.039,0c.456.048.916.083,1.379.111l.339.018c.482.023.967.039,1.457.039h0a28.287,28.287,0,0,0,16.33-5.013l.774-.563-3.943-6.468Z" transform="translate(-64.044 -171.611)" fill="#009000"/>
      <path id="Path_21" data-name="Path 21" d="M223.744,295.426l13.464-21.247a4.026,4.026,0,0,0-.758-5.193h0a4.027,4.027,0,0,0-5.507.209l-9.916,10.039a1.949,1.949,0,0,1-3.318-1.63l2.916-21.6a4.027,4.027,0,0,0-3.719-4.556l-2.732-.185a4.026,4.026,0,0,0-4.237,3.32l-5.205,29.573a1.949,1.949,0,0,1-3.431.892L185,264.993a4.025,4.025,0,0,0-4.684-1.171l-2.854,1.2a4.027,4.027,0,0,0-1.893,5.783l16.752,27.923a20.948,20.948,0,0,1,2.82,13.464c-2.171,16.743-4.868,32.535-15.9,45.4h57.586c-11.814-13.771-14.728-30.9-16.292-48.954A21.26,21.26,0,0,1,223.744,295.426Z" transform="translate(-70.119 -108.248)" fill="#603813"/>
      <path id="Path_22" data-name="Path 22" d="M285.755,274.49A4.027,4.027,0,0,0,285,269.3h0a4.027,4.027,0,0,0-5.507.208l-4.428,4.484h0l-5.488,5.556a1.949,1.949,0,0,1-3.318-1.63l2.916-21.6a4.023,4.023,0,0,0-3.545-4.535l-8.2,50.964q-.207.987-.321,1.992h0a21.315,21.315,0,0,0-.055,4.217c1.565,18.058,4.479,35.183,16.293,48.954h12.026c-11.814-13.77-14.728-30.9-16.292-48.954a21.255,21.255,0,0,1,3.213-13.21Z" transform="translate(-114.714 -108.559)" fill="#4b2e12"/>
      <path id="Path_23" data-name="Path 23" d="M140,60.5a21.816,21.816,0,0,0-19.848,12.761A21.814,21.814,0,0,0,88.682,102a21.82,21.82,0,0,0,3.342,43.382c12.05,0,69.79-51.011,69.79-63.061A21.818,21.818,0,0,0,140,60.5Z" transform="translate(-25.746 -35.827)" fill="#28a528"/>
    </g>
    <g id="Group_126" data-name="Group 126" transform="translate(132.57 484.818)" clip-path="url(#clip-path)">
      <path id="Path_176" data-name="Path 176" d="M871.132,376.686c-4.183-7.623-11.455-13.038-19.964-13.845-.285-.028-.567-.039-.848-.057-4.87-3.112-6.783-6.737-17.12-6.737-10.792,0-13.1,3.9-18.162,7.432a28.279,28.279,0,0,0-20.5,13.207h76.593" transform="translate(-794.146 -356.013)" fill="#3d2714"/>
    </g>
  </g>
</svg>
